<?xml version="1.0" encoding="UTF-8"?>
<svg id="Color_Logo" data-name="Color Logo" xmlns="http://www.w3.org/2000/svg" viewBox="0 0 600 800">
  <defs>
    <style>
      .cls-1 {
        fill: #aa454f;
      }

      .cls-1, .cls-2 {
        stroke-width: 0px;
      }

      .cls-2 {
        fill: #807e7e;
      }
    </style>
  </defs>
  <path id="Book-2" data-name="Book" class="cls-1" d="m277.87,440.46c-14.14,0-25.64-11.47-25.64-25.57,0-6.83,2.67-13.25,7.5-18.09,4.85-4.82,11.29-7.48,18.14-7.48,1.74,0,3.14-1.4,3.14-3.13s-1.4-3.13-3.14-3.13H115.66c-8.52,0-16.54,3.31-22.57,9.32-6.03,6.02-9.35,14.02-9.35,22.51,0,17.55,14.32,31.83,31.92,31.83h162.22c1.74,0,3.14-1.4,3.14-3.13s-1.4-3.13-3.14-3.13Zm-180.53-26.09c0-.09,0-.2.02-.29-.01-.01-.01-.02,0-.03.21-4.56,2.08-8.82,5.35-12.08,3.45-3.44,8.06-5.33,12.95-5.33h122.62c1.74,0,3.14,1.4,3.14,3.13s-1.4,3.13-3.14,3.13h-122.62c-3.21,0-6.24,1.24-8.51,3.51-1.38,1.38-2.39,3.04-2.96,4.84h134.44c1.74,0,3.14,1.4,3.14,3.13s-1.4,3.13-3.14,3.13H103.9c1.2,5.36,6.02,9.39,11.75,9.39h122.64c1.74,0,3.14,1.4,3.14,3.13s-1.4,3.13-3.14,3.13h-122.64c-10.1,0-18.32-8.19-18.32-18.26,0-.13,0-.26.01-.39-.01-.04-.01-.09-.01-.14Z"/>
  <path id="Cup-2" data-name="Cup" class="cls-1" d="m145.35,369.46v4.69c0,1.47,1.15,2.66,2.57,2.66h64.71c1.42,0,2.57-1.19,2.57-2.66v-4.69c10.79-6.67,19.43-16.19,25.2-27.31.04.01.09.01.14.01h11.52c7.61,0,13.79-6.42,13.79-14.31v-14.9c0-1.46-1.15-2.66-2.57-2.66h-14.71c.02-.58.03-1.17.03-1.75,0-1.47-1.15-2.66-2.57-2.66H114.51c-1.42,0-2.57,1.19-2.57,2.66,0,24.96,12.76,48.16,33.42,60.92Zm115.38-53.85v12.24c0,4.96-3.9,8.99-8.67,8.99h-9.17c2.82-6.68,4.66-13.84,5.37-21.23h12.46Z"/>
  <g id="Smoke-2" data-name="Smoke">
    <path id="Smoke_left" data-name="Smoke left" class="cls-1" d="m171.77,277.47c-4.42,15.17-3.2,27.47-2.56,27.47-.64,0-6.99-12.3-2.56-27.47,4.42-15.17,3.2-27.47,2.56-27.47.64,0,6.99,12.3,2.56,27.47Z"/>
    <path id="Smoke_centre" data-name="Smoke centre" class="cls-1" d="m184.59,277.47c-4.42,15.17-3.2,27.47-2.56,27.47-.64,0-6.99-12.3-2.56-27.47,4.42-15.17,3.2-27.47,2.56-27.47.64,0,6.99,12.3,2.56,27.47Z"/>
    <path id="Smoke_right" data-name="Smoke right" class="cls-1" d="m198.26,277.47c-4.42,15.17-3.2,27.47-2.56,27.47-.64,0-6.99-12.3-2.56-27.47,4.42-15.17,3.2-27.47,2.56-27.47.64,0,6.99,12.3,2.56,27.47Z"/>
  </g>
  <g id="Text-2" data-name="Text">
    <g id="Cafe">
      <path class="cls-2" d="m323.58,433.6l-.66,8.89c-3.69.88-7.32,1.31-10.9,1.31-8.9,0-15.69-2.44-20.35-7.32-4.66-4.88-6.99-10.81-6.99-17.79s2.47-13.53,7.42-18.89,11.73-8.04,20.35-8.04c3.17,0,6.16.36,9,1.08l-1.36,8.92c-3.06-.98-6-1.47-8.8-1.47-5.27,0-9.19,1.66-11.76,4.96-2.57,3.31-3.86,7.33-3.86,12.07s1.53,9.04,4.58,12.59c3.05,3.55,7.33,5.33,12.83,5.33,3.22,0,6.72-.55,10.51-1.66Z"/>
      <path class="cls-2" d="m373.51,442.75h-12.46c0-1.7-1.18-6.52-3.54-14.45h-17.99c-2.44,7.8-3.66,12.62-3.66,14.45h-11.72c0-1,3.03-9.25,9.09-24.73,6.06-15.48,9.09-24,9.09-25.58h14.72c0,1.47,2.74,9.87,8.23,25.21,5.49,15.34,8.24,23.7,8.24,25.09Zm-17.99-21.83c-4.44-13.29-6.66-20.48-6.66-21.56h-.62c0,1.01-2.3,8.19-6.89,21.56h14.18Z"/>
      <path class="cls-2" d="m407.76,392.45l-.35,8.46c-8.1-.41-15.43-.62-22-.62.34,4.4.51,9.29.51,14.64,5.01,0,10.7-.13,17.05-.39v8c-6.44-.23-12.12-.35-17.05-.35,0,7.29.12,14.14.35,20.55h-10.75c.34-7.78.51-16.55.51-26.31s-.17-17.37-.51-23.99h32.24Z"/>
      <path class="cls-2" d="m442.05,434.25l-.31,8.5h-33.14c.34-7.78.51-16.55.51-26.31s-.17-17.37-.51-23.99h31.62l-.43,8.46c-7.79-.41-14.85-.62-21.18-.62.26,3.58.39,7.8.39,12.67,5.43,0,11.23-.14,17.41-.42v8.07c-6.07-.26-11.88-.39-17.41-.39,0,5.23.1,10.12.31,14.68,7.11,0,14.69-.22,22.74-.66Z"/>
    </g>
    <g id="Tomes">
      <path class="cls-2" d="m319.55,325.04l-.31,9.44c-5.86-.44-11.38-.66-16.56-.66-.06,5.53-.09,11.7-.09,18.49,0,10.54.16,20.51.48,29.91h-12.3c.38-9.31.57-19.28.57-29.91,0-6.68-.06-12.84-.18-18.49-4.13,0-9.79.23-17,.7l.35-9.49h45.02Z"/>
      <path class="cls-2" d="m372.99,352.58c0,8.99-2.75,16.44-8.26,22.36-5.51,5.92-12.32,8.87-20.43,8.87s-14.2-2.72-19.41-8.15c-5.21-5.43-7.82-12.34-7.82-20.71,0-8.99,2.75-16.44,8.26-22.36,5.51-5.91,12.31-8.87,20.42-8.87s14.2,2.71,19.42,8.13c5.21,5.42,7.82,12.33,7.82,20.73Zm-12.12,1.27c0-6.12-1.57-11.08-4.7-14.89s-7-5.71-11.6-5.71c-4.28,0-7.91,1.92-10.89,5.75-2.99,3.84-4.48,8.68-4.48,14.54s1.57,11.05,4.72,14.87c3.15,3.82,7.01,5.73,11.57,5.73,4.27,0,7.91-1.92,10.89-5.78,2.99-3.85,4.48-8.69,4.48-14.52Z"/>
      <path class="cls-2" d="m441.9,382.23h-12.78c0-4.98-.31-13.37-.92-25.19-.61-11.82-.94-19.19-.97-22.12h-.66c-.29,1.76-1.07,5.01-2.33,9.75-1.26,4.74-3.62,11.73-7.09,20.97-3.47,9.24-5.21,14.77-5.21,16.58h-9.71c0-1.87-1.66-7.45-4.98-16.74-3.32-9.28-5.5-15.78-6.52-19.5-1.03-3.72-1.84-7.41-2.46-11.07h-.66c-.03,3.66-.39,11.51-1.08,23.54-.69,12.03-1.03,19.96-1.03,23.76h-11.6c0-.88,1.06-9.68,3.18-26.4,2.12-16.72,3.18-26.98,3.18-30.79h17c0,3.28,1.79,10.51,5.38,21.7,3.59,11.19,5.38,18.35,5.38,21.48h.66c0-3.16,2.04-10.34,6.13-21.52,4.09-11.19,6.13-18.41,6.13-21.65h16.87c0,6.06.68,16.87,2.04,32.44,1.36,15.56,2.04,23.81,2.04,24.75Z"/>
      <path class="cls-2" d="m484.5,372.57l-.35,9.66h-37.38c.38-8.84.57-18.81.57-29.91s-.19-19.75-.57-27.28h35.67l-.48,9.62c-8.78-.47-16.75-.7-23.89-.7.29,4.07.44,8.87.44,14.41,6.12,0,12.66-.16,19.63-.48v9.18c-6.85-.29-13.4-.44-19.63-.44,0,5.94.12,11.51.35,16.69,8.02,0,16.57-.25,25.65-.75Z"/>
      <path class="cls-2" d="m527,366.64c0,11.45-8.23,17.17-24.69,17.17-5.59,0-10.79-.67-15.59-2.02l2.15-9.79c4.74,1.64,9.22,2.46,13.44,2.46,4.69,0,8.05-.45,10.1-1.36,2.05-.91,3.08-2.43,3.08-4.57s-.97-4.1-2.9-5.62c-1.67-1.35-5.05-3.1-10.15-5.27-4.63-1.99-8.07-4.16-10.32-6.5-2.84-2.96-4.26-6.6-4.26-10.94,0-5.04,1.87-8.97,5.6-11.81,3.73-2.84,9.1-4.26,16.1-4.26,5.74,0,10.56.48,14.45,1.45l-1.62,9.75c-3.95-1.43-8.23-2.15-12.83-2.15-6.91,0-10.37,1.85-10.37,5.53,0,1.96.81,3.56,2.42,4.79,1.4,1.05,4.46,2.53,9.18,4.44,5.01,2.02,8.76,4.25,11.24,6.68,3.31,3.25,4.96,7.26,4.96,12.04Z"/>
    </g>
  </g>
</svg>